<?xml version="1.0" encoding="UTF-8" standalone="no"?>
<!-- Created with Inkscape (http://www.inkscape.org/) -->
<svg xmlns:rdf="http://www.w3.org/1999/02/22-rdf-syntax-ns#" xmlns="http://www.w3.org/2000/svg" xmlns:cc="http://creativecommons.org/ns#" xmlns:dc="http://purl.org/dc/elements/1.1/" xmlns:svg="http://www.w3.org/2000/svg" xmlns:inkscape="http://www.inkscape.org/namespaces/inkscape" xmlns:sodipodi="http://sodipodi.sourceforge.net/DTD/sodipodi-0.dtd" xmlns:ns1="http://sozi.baierouge.fr" xmlns:xlink="http://www.w3.org/1999/xlink" version="1.1" viewBox="0 0 200 200" inkscape:version="0.91 r13725">
  <defs>
    <linearGradient id="linearGradient3790" y2="160" gradientUnits="userSpaceOnUse" y1="40" x2="160" x1="40">
      <stop stop-color="#FFF" offset="0"/>
      <stop stop-color="#666" offset="1"/>
    </linearGradient>
    <linearGradient id="linearGradient3776" y2="40" gradientUnits="userSpaceOnUse" y1="164.5" x2="160" x1="40">
      <stop stop-color="#bbb" offset="0"/>
      <stop stop-color="#ddd" offset="1"/>
    </linearGradient>
    <filter id="filter3783">
      <feGaussianBlur stdDeviation="0.96"/>
    </filter>
  </defs>
  <path filter="url(#filter3783)" d="m88 2v36c0 30-12 36-22 36h-20l-40 38h36c30 0 36 12 36 22v20l38 40v-36c0-30 12-36 22-36h20l40-38h-36c-30 0-36-12-36-22v-20l-38-40zm14 84c6.63 0 12 5.373 12 12 0 6.63-5.37 12-12 12-6.627 0-12-5.37-12-12 0-6.627 5.373-12 12-12z" fill="#333"/>
  <path d="m86 4v36c0 30-12 36-22 36h-20l-40 38h36c30 0 36 12 36 22v20l38 40v-36c0-30 12-36 22-36h20l40-38h-36c-30 0-36-12-36-22v-20zm14 84c6.63 0 12 5.373 12 12 0 6.63-5.37 12-12 12-6.627 0-12-5.37-12-12 0-6.627 5.373-12 12-12z" stroke="url(#linearGradient3776)" stroke-width=".5" fill="url(#linearGradient3790)"/>
  <path opacity=".3" d="m44 76h20l-40 38h-20z" fill="#666"/>
  <path opacity=".3" d="m124 44v20l-38-40v-20z"/>
  <path opacity=".3" d="m114 176v20l-38-40v-20z" fill="#666"/>
  <path opacity=".3" d="m176 86h20l-40 38h-20z" fill="#666"/>
  <metadata>
    <rdf:RDF>
      <cc:Work>
        <dc:format>image/svg+xml</dc:format>
        <dc:type rdf:resource="http://purl.org/dc/dcmitype/StillImage"/>
        <cc:license rdf:resource="http://creativecommons.org/licenses/publicdomain/"/>
        <dc:publisher>
          <cc:Agent rdf:about="http://openclipart.org/">
            <dc:title>Openclipart</dc:title>
          </cc:Agent>
        </dc:publisher>
        <dc:title>Shuriken</dc:title>
        <dc:date>2011-02-28T21:22:56</dc:date>
        <dc:description>Four peaks shuriken (ninja star).</dc:description>
        <dc:source>https://openclipart.org/detail/124303/shuriken-by-daphyre</dc:source>
        <dc:creator>
          <cc:Agent>
            <dc:title>daPhyre</dc:title>
          </cc:Agent>
        </dc:creator>
        <dc:subject>
          <rdf:Bag>
            <rdf:li>japan</rdf:li>
            <rdf:li>ninja</rdf:li>
            <rdf:li>shuriken</rdf:li>
            <rdf:li>star</rdf:li>
            <rdf:li>weapon</rdf:li>
          </rdf:Bag>
        </dc:subject>
      </cc:Work>
      <cc:License rdf:about="http://creativecommons.org/licenses/publicdomain/">
        <cc:permits rdf:resource="http://creativecommons.org/ns#Reproduction"/>
        <cc:permits rdf:resource="http://creativecommons.org/ns#Distribution"/>
        <cc:permits rdf:resource="http://creativecommons.org/ns#DerivativeWorks"/>
      </cc:License>
    </rdf:RDF>
  </metadata>
</svg>
